<?xml version="1.0" encoding="utf-8"?>
<!-- Generator: Adobe Illustrator 24.0.1, SVG Export Plug-In . SVG Version: 6.00 Build 0)  -->
<svg version="1.1" id="Camada_1" xmlns="http://www.w3.org/2000/svg" xmlns:xlink="http://www.w3.org/1999/xlink" x="0px" y="0px"
	 viewBox="0 0 512 512" style="enable-background:new 0 0 512 512;" xml:space="preserve">
<style type="text/css">
	.st0{fill:#1A67EF;}
</style>
<g id="Page-1">
	<g id="_x30_15---AR-Object-Desktop">
		<path id="Shape" class="st0" d="M452.3,25.6H59.7C26.8,25.6,0,52.4,0,85.3v341.3c0,33,26.8,59.7,59.7,59.7h392.5
			c33,0,59.7-26.8,59.7-59.7V85.3C512,52.4,485.2,25.6,452.3,25.6z M494.9,426.7c0,23.6-19.1,42.6-42.7,42.7H59.7
			c-23.6,0-42.6-19.1-42.7-42.7V85.3c0-23.6,19.1-42.6,42.7-42.7h392.5c23.6,0,42.6,19.1,42.7,42.7V426.7z"/>
		<path id="Shape_1_" class="st0" d="M452.3,93.9H59.7c-14.1,0-25.6,11.5-25.6,25.6v307.2c0,14.1,11.5,25.6,25.6,25.6h392.5
			c14.1,0,25.6-11.5,25.6-25.6V119.5C477.9,105.3,466.4,93.9,452.3,93.9z M256,263.4l-92.9-50l92.9-50l92.9,50L256,263.4z
			 M358.4,227.6v100.1l-93.9,50.6V278.2L358.4,227.6z M247.5,278.2v100.1l-93.9-50.6V227.6L247.5,278.2z M51.2,119.5
			c0-4.7,3.8-8.5,8.5-8.5h187.7v37.5L141,205.8c-0.1,0.1-0.2,0.1-0.3,0.2c-2.6,1.6-4.2,4.3-4.1,7.4v71.5l-85.3,42.7V119.5z
			 M460.8,426.7c0,4.7-3.8,8.5-8.5,8.5H59.7c-4.7,0-8.5-3.8-8.5-8.5v-80.1l85.3-42.7v28.9c0,3.1,1.7,6,4.5,7.5L252,400
			c2.5,1.4,5.6,1.4,8.1,0L371,340.3c2.8-1.5,4.5-4.4,4.5-7.5v-28.9l85.3,42.7V426.7z M460.8,327.5l-85.3-42.7v-71.5
			c0-3-1.6-5.8-4.2-7.3c-0.1-0.1-0.2-0.1-0.3-0.2l-106.4-57.4v-37.5h187.7c4.7,0,8.5,3.8,8.5,8.5V327.5z"/>
		<circle id="Oval" class="st0" cx="51.2" cy="68.3" r="8.5"/>
		<circle id="Oval_1_" class="st0" cx="85.3" cy="68.3" r="8.5"/>
		<circle id="Oval_2_" class="st0" cx="119.5" cy="68.3" r="8.5"/>
		<path id="Shape_2_" class="st0" d="M332.8,76.8h119.5c4.7,0,8.5-3.8,8.5-8.5s-3.8-8.5-8.5-8.5H332.8c-4.7,0-8.5,3.8-8.5,8.5
			S328.1,76.8,332.8,76.8z"/>
	</g>
</g>
</svg>
