<?xml version="1.0" encoding="utf-8"?>
<!-- Generator: Adobe Illustrator 24.0.1, SVG Export Plug-In . SVG Version: 6.00 Build 0)  -->
<svg version="1.1" id="Camada_1" xmlns="http://www.w3.org/2000/svg" xmlns:xlink="http://www.w3.org/1999/xlink" x="0px" y="0px"
	 viewBox="0 0 512 512" style="enable-background:new 0 0 512 512;" xml:space="preserve">
<style type="text/css">
	.st0{fill:#1A67EF;}
</style>
<g id="database">
	<path class="st0" d="M160,288h-32c-4.4,0-8,3.6-8,8v32c0,4.4,3.6,8,8,8h32c4.4,0,8-3.6,8-8v-32C168,291.6,164.4,288,160,288z
		 M152,320h-16v-16h16V320z"/>
	<path class="st0" d="M224,288h-32c-4.4,0-8,3.6-8,8v32c0,4.4,3.6,8,8,8h32c4.4,0,8-3.6,8-8v-32C232,291.6,228.4,288,224,288z
		 M216,320h-16v-16h16V320z"/>
	<path class="st0" d="M248,288h112v16H248V288z"/>
	<path class="st0" d="M376,288h16v16h-16V288z"/>
	<path class="st0" d="M248,320h112v16H248V320z"/>
	<path class="st0" d="M376,320h16v16h-16V320z"/>
	<path class="st0" d="M128,464h32c4.4,0,8-3.6,8-8v-32c0-4.4-3.6-8-8-8h-32c-4.4,0-8,3.6-8,8v32C120,460.4,123.6,464,128,464z
		 M136,432h16v16h-16V432z"/>
	<path class="st0" d="M192,464h32c4.4,0,8-3.6,8-8v-32c0-4.4-3.6-8-8-8h-32c-4.4,0-8,3.6-8,8v32C184,460.4,187.6,464,192,464z
		 M200,432h16v16h-16V432z"/>
	<path class="st0" d="M248,416h112v16H248V416z"/>
	<path class="st0" d="M376,416h16v16h-16V416z"/>
	<path class="st0" d="M248,448h112v16H248V448z"/>
	<path class="st0" d="M376,448h16v16h-16V448z"/>
	<path class="st0" d="M489.3,232.1l-31.7-5.3c-1.3-3.8-2.8-7.6-4.6-11.2l18.6-26.2c2.3-3.2,2-7.5-0.8-10.3l-33.9-33.9
		c-2.8-2.8-7.1-3.1-10.3-0.8L400.4,163c-3.6-1.7-7.4-3.3-11.2-4.6l-5.3-31.7c-0.6-3.9-4-6.7-7.9-6.7h-48c-3.9,0-7.3,2.8-7.9,6.7
		l-0.1,0.6V64c0-31.5-76.5-48-152-48S16,32.5,16,64v240c0,24.2,42.6,36.1,72.2,41.4C88.9,358.1,99.3,368,112,368h8v16h-8
		c-13.2,0-24,10.8-24,24v64c0,13.2,10.8,24,24,24h288c13.2,0,24-10.8,24-24v-64c0-13.2-10.8-24-24-24h-8v-16h8c1.3,0,2.7-0.1,4-0.4
		l22.6,16.1c1.4,0.9,3,1.4,4.6,1.4c2.1,0,4.2-0.8,5.7-2.3l33.9-33.9c2.8-2.8,3.1-7.1,0.8-10.3L453,312.4c1.8-3.6,3.3-7.4,4.6-11.2
		l31.7-5.3c3.9-0.6,6.7-4,6.7-7.9v-48C496,236.1,493.2,232.7,489.3,232.1L489.3,232.1z M320,218.3c25-17.8,59.8-12,77.6,13.1
		c5.5,7.7,8.9,16.6,10,26c-2.4-0.9-5-1.3-7.6-1.4h-80V218.3z M168,32c88,0,136,21.1,136,32s-48,32-136,32S32,74.9,32,64
		S80,32,168,32z M32,86.6c26.3,16.7,81.3,25.4,136,25.4s109.7-8.7,136-25.4V144c0,10.9-48,32-136,32S32,154.9,32,144V86.6z M88,280
		v49.1c-40.6-7.7-56-19.3-56-25.1v-57.4c18.8,10.2,39.3,16.8,60.5,19.5C89.6,270.1,88,275,88,280z M32,224v-57.4
		c26.3,16.7,81.3,25.4,136,25.4s109.7-8.7,136-25.4V224c0,10.9-48,32-136,32S32,234.9,32,224z M304,246.6v9.4h-19.8
		C291.1,253.6,297.8,250.4,304,246.6z M400,400c4.4,0,8,3.6,8,8v64c0,4.4-3.6,8-8,8H112c-4.4,0-8-3.6-8-8v-64c0-4.4,3.6-8,8-8H400z
		 M136,384v-16h32v16H136z M184,384v-16h144v16H184z M344,384v-16h32v16H344z M408,344c0,4.4-3.6,8-8,8H112c-4.4,0-8-3.6-8-8v-64
		c0-4.4,3.6-8,8-8h288c4.4,0,8,3.6,8,8V344z M480,281.2l-29.8,5c-3,0.5-5.5,2.7-6.4,5.6c-1.8,6.1-4.2,12-7.2,17.6
		c-1.5,2.7-1.2,5.9,0.6,8.4l17.4,24.6l-24.3,24.3l-11.4-8.1c3.2-4.2,5-9.3,5-14.6v-64c0-1.9-0.3-3.9-0.8-5.8
		c0.5-3.4,0.8-6.8,0.8-10.2c0.1-39.7-32-71.9-71.7-72c-11.2,0-22.3,2.6-32.3,7.6v-25.9c1.4-0.6,2.9-1.1,4.3-1.5c2.9-1,5-3.4,5.5-6.4
		l5-29.8h34.4l5,29.8c0.5,3,2.7,5.5,5.6,6.4c6.1,1.8,12,4.2,17.6,7.2c2.7,1.4,5.9,1.2,8.4-0.6l24.6-17.4l24.3,24.3l-17.4,24.6
		c-1.8,2.5-2,5.7-0.6,8.4c3,5.6,5.4,11.5,7.2,17.6c0.9,2.9,3.4,5.1,6.4,5.6l29.8,5V281.2z"/>
	<path class="st0" d="M48,384H32v64c0,4.4,3.6,8,8,8h32v-16H48V384z"/>
	<path class="st0" d="M488,32H360v16h120v76.7l-21.7,21.7l11.3,11.3l24-24c1.5-1.5,2.3-3.5,2.3-5.7V40C496,35.6,492.4,32,488,32z"/>
	<path class="st0" d="M328,32h16v16h-16V32z"/>
	<path class="st0" d="M32,352h16v16H32V352z"/>
</g>
</svg>
