<svg id="Camada_1" data-name="Camada 1" xmlns="http://www.w3.org/2000/svg" xmlns:xlink="http://www.w3.org/1999/xlink" viewBox="0 0 1852.86 872.87"><defs><style>.cls-1{fill:url(#Gradiente_sem_nome_45);}.cls-2{fill:url(#Gradiente_sem_nome_44);}.cls-3,.cls-5{opacity:0.9;}.cls-3{fill:url(#Gradiente_sem_nome_28);}.cls-4{fill:url(#Gradiente_sem_nome_26);}.cls-5{fill:url(#Gradiente_sem_nome_28-2);}.cls-6{fill:url(#Gradiente_sem_nome_26-2);}.cls-7{fill:url(#Gradiente_sem_nome_65);}</style><linearGradient id="Gradiente_sem_nome_45" x1="974.58" y1="990.28" x2="1151.13" y2="776.95" gradientTransform="matrix(0.98, -0.22, 0.22, 0.98, -187.74, 276.92)" gradientUnits="userSpaceOnUse"><stop offset="0" stop-color="#44aff2"/><stop offset="0.27" stop-color="#42aef2"/><stop offset="0.43" stop-color="#39abf2"/><stop offset="0.56" stop-color="#2ba6f2"/><stop offset="0.67" stop-color="#189ef2"/><stop offset="0.75" stop-color="#0597f2"/></linearGradient><linearGradient id="Gradiente_sem_nome_44" x1="1238.06" y1="690.74" x2="1175.35" y2="1269.65" gradientTransform="translate(-413.98 -390.27) rotate(-8.43)" gradientUnits="userSpaceOnUse"><stop offset="0" stop-color="#44aff2"/><stop offset="0.3" stop-color="#42aef2"/><stop offset="0.47" stop-color="#39abf2"/><stop offset="0.61" stop-color="#2ba6f2"/><stop offset="0.74" stop-color="#189ef2"/><stop offset="0.82" stop-color="#0597f2"/></linearGradient><linearGradient id="Gradiente_sem_nome_28" x1="-199.48" y1="1180.2" x2="-487.13" y2="1272.5" gradientTransform="translate(367.52 1586.52) rotate(166.73)" gradientUnits="userSpaceOnUse"><stop offset="0" stop-color="#056cf2"/><stop offset="0.65" stop-color="#44aff2"/></linearGradient><linearGradient id="Gradiente_sem_nome_26" x1="-287.89" y1="823.83" x2="-55.09" y2="1168.97" gradientTransform="matrix(-0.97, 0.23, -0.23, -0.97, 367.79, 1586.83)" gradientUnits="userSpaceOnUse"><stop offset="0" stop-color="#056cf2"/><stop offset="0.74" stop-color="#44aff2"/></linearGradient><linearGradient id="Gradiente_sem_nome_28-2" x1="79.19" y1="1571.73" x2="-208.45" y2="1664.03" gradientTransform="translate(1124.23 -1030.76) rotate(-13.27)" xlink:href="#Gradiente_sem_nome_28"/><linearGradient id="Gradiente_sem_nome_26-2" x1="-9.39" y1="1215.03" x2="223.42" y2="1560.17" gradientTransform="matrix(0.97, -0.23, 0.23, 0.97, 1123.96, -1031.07)" xlink:href="#Gradiente_sem_nome_26"/><linearGradient id="Gradiente_sem_nome_65" x1="1285.49" y1="1192.09" x2="1684.81" y2="717.88" gradientTransform="matrix(0.99, -0.14, 0.14, 0.99, -406.23, -395.1)" gradientUnits="userSpaceOnUse"><stop offset="0.18" stop-color="#f2f2f2"/><stop offset="0.28" stop-color="#f0f0f0"/><stop offset="0.88" stop-color="#e6e6e6"/></linearGradient></defs><title>arte-01 copiar</title><path class="cls-1" d="M679,1452.47H886.36l414.42-870.18-215.94,1.63" transform="translate(-273.28 -579.6)"/><polygon class="cls-2" points="821.95 871.18 1039.2 871.18 1027.49 2.69 811.55 4.33 821.95 871.18"/><polyline class="cls-3" points="0.29 476.45 122.94 596.2 600.87 301.27 727.72 25.78"/><polyline class="cls-4" points="248.72 322.08 532.26 599.13 406.32 872.87 0 476.11"/><polyline class="cls-5" points="1852.57 396.42 1729.92 276.67 1251.99 571.6 1125.14 847.09"/><polyline class="cls-6" points="1604.13 550.79 1319.19 272.37 1446.54 0 1852.86 396.76"/><polygon class="cls-7" points="821.95 871.18 1039.2 871.18 1446.54 0 1244.05 0 821.95 871.18"/></svg>
