<svg id="Camada_1" data-name="Camada 1" xmlns="http://www.w3.org/2000/svg" xmlns:xlink="http://www.w3.org/1999/xlink" viewBox="0 0 727.97 311.67"><defs><style>.cls-1{fill:#39f;}.cls-2{fill:url(#Gradiente_sem_nome_2);}.cls-3{fill:url(#Nova_amostra_de_gradiente_1);}</style><linearGradient id="Gradiente_sem_nome_2" x1="706.9" y1="625.15" x2="917.16" y2="909.31" gradientTransform="translate(0 -244)" gradientUnits="userSpaceOnUse"><stop offset="0" stop-color="#39f"/><stop offset="0.42" stop-color="#3197fe"/><stop offset="0.65" stop-color="#298ffc"/><stop offset="0.83" stop-color="#1b82f8"/><stop offset="0.98" stop-color="#086ff3"/><stop offset="1" stop-color="#056cf2"/></linearGradient><linearGradient id="Nova_amostra_de_gradiente_1" x1="1085.64" y1="653.96" x2="1220.11" y2="939.73" gradientTransform="translate(0 -244)" gradientUnits="userSpaceOnUse"><stop offset="0" stop-color="#39f"/><stop offset="0.42" stop-color="#3197fe"/><stop offset="0.65" stop-color="#298ffc"/><stop offset="0.83" stop-color="#1b82f8"/><stop offset="0.98" stop-color="#086ff3"/><stop offset="1" stop-color="#056cf2"/></linearGradient></defs><title>logo2</title><path class="cls-1" d="M667.23,653.9l26.3,41.93h90l-26.3-41.93Z" transform="translate(-596.01 -384.17)"/><path class="cls-2" d="M751.1,644.08q-32.57-51.81-65.05-103.71l51.2-67.76L881.19,695.74h67l1.21-311.57H873.33l1.13,161.73L770.19,384.26H705.52L596,540.47q32.58,51.79,65.15,103.61Z" transform="translate(-596.01 -384.17)"/><path class="cls-3" d="M1236.57,545.43c-9.83,13-40.81,53.16-61.12,64.58a78.57,78.57,0,0,1-38.37,10.2c-43.43,0-78.62-35.94-78.62-80.21s35.19-80.21,78.62-80.21a77.5,77.5,0,0,1,38.37,10.2c19.56,11.14,50.36,51,61.12,65.42H1324c-16-24.61-71-106.22-108.39-129.16a149.88,149.88,0,0,0-78.52-22.08c-84.42,0-152.84,69.72-152.84,155.83s68.42,155.83,152.84,155.83a149.88,149.88,0,0,0,78.52-22.08c41.19-25.18,99.12-114.66,107.82-128.32Z" transform="translate(-596.01 -384.17)"/></svg>