<?xml version="1.0" encoding="utf-8"?>
<!-- Generator: Adobe Illustrator 24.0.1, SVG Export Plug-In . SVG Version: 6.00 Build 0)  -->
<svg version="1.1" id="Camada_1" xmlns="http://www.w3.org/2000/svg" xmlns:xlink="http://www.w3.org/1999/xlink" x="0px" y="0px"
	 viewBox="0 0 769 323" style="enable-background:new 0 0 769 323;" xml:space="preserve">
<style type="text/css">
	.st0{fill:#F2F2F2;}
</style>
<path class="st0" d="M680,162c-10.2,13.5-46.9,60.4-67.9,72.2c-11.6,6.6-25.5,10.6-39.8,10.6c-45,0-81.5-37.2-81.5-83.1
	s36.5-83.1,81.5-83.1c14.4,0,28,3.9,39.8,10.6C632.3,100.6,668.8,147.1,680,162h89c-16.6-25.5-76.5-115.2-115.3-139
	C629.9,8.5,602.1,0.1,572.3,0.1c-87.5,0-158.4,72.3-158.4,161.5s70.9,161.5,158.4,161.5c29.8,0,57.6-8.3,81.4-22.9
	C696.4,274.2,760,176.2,769,162H680z"/>
<path class="st0" d="M206,323c-22.5-35.8-78.7-125.2-101.2-161l53.1-70.2L307.1,323h69.5l1.3-322.9h-78.9l1.2,167.6L192,0.2h-67
	L11.5,162.1C34,197.9,90.5,287.2,113,323C144,323,175,323,206,323z"/>
</svg>
