<svg id="Camada_1" data-name="Camada 1" xmlns="http://www.w3.org/2000/svg" xmlns:xlink="http://www.w3.org/1999/xlink" viewBox="0 0 1329.1 311.67"><defs><style>.cls-1{fill:#39f;}.cls-2{fill:url(#Gradiente_sem_nome);}.cls-3{fill:url(#Nova_amostra_de_gradiente_1);}.cls-4{opacity:0.82;font-size:121.28px;fill:#00000f;font-family:Gilroy-ExtraBold, Gilroy;font-weight:800;}.cls-5{letter-spacing:-0.02em;}.cls-6{letter-spacing:0em;}.cls-7{letter-spacing:-0.02em;}.cls-8{letter-spacing:0em;}.cls-9{letter-spacing:-0.02em;}</style><linearGradient id="Gradiente_sem_nome" x1="334.6" y1="782.62" x2="544.86" y2="1066.77" gradientTransform="translate(0 -244)" gradientUnits="userSpaceOnUse"><stop offset="0" stop-color="#39f"/><stop offset="0.42" stop-color="#3197fe"/><stop offset="0.65" stop-color="#298ffc"/><stop offset="0.83" stop-color="#1b82f8"/><stop offset="0.98" stop-color="#086ff3"/><stop offset="1" stop-color="#056cf2"/></linearGradient><linearGradient id="Nova_amostra_de_gradiente_1" x1="713.34" y1="811.42" x2="847.81" y2="1097.19" gradientTransform="translate(0 -244)" gradientUnits="userSpaceOnUse"><stop offset="0" stop-color="#39f"/><stop offset="0.42" stop-color="#3197fe"/><stop offset="0.65" stop-color="#298ffc"/><stop offset="0.83" stop-color="#1b82f8"/><stop offset="0.98" stop-color="#086ff3"/><stop offset="1" stop-color="#056cf2"/></linearGradient></defs><title>logo</title><path class="cls-1" d="M1128.53,535.26" transform="translate(-223.71 -541.63)"/><path class="cls-1" d="M294.93,811.36l26.3,41.93h90L385,811.36Z" transform="translate(-223.71 -541.63)"/><path class="cls-2" d="M378.8,801.54q-32.57-51.81-65.05-103.7L365,630.07,508.89,853.2h67l1.21-311.57H501l1.13,161.73L397.89,541.72H333.22L223.71,697.93l65.15,103.61Z" transform="translate(-223.71 -541.63)"/><path class="cls-3" d="M864.27,702.89c-9.83,13-40.81,53.16-61.12,64.58a78.57,78.57,0,0,1-38.37,10.2c-43.43,0-78.62-35.94-78.62-80.21s35.19-80.21,78.62-80.21a77.61,77.61,0,0,1,38.37,10.2c19.56,11.14,50.36,51,61.12,65.43h87.42c-16-24.62-71-106.23-108.39-129.16a149.8,149.8,0,0,0-78.52-22.09c-84.42,0-152.84,69.73-152.84,155.83s68.42,155.83,152.84,155.83a149.79,149.79,0,0,0,78.52-22.08C884.49,806,942.42,716.55,951.12,702.89Z" transform="translate(-223.71 -541.63)"/><text class="cls-4" transform="translate(773.63 147.61)">Na<tspan class="cls-5" x="156.82" y="0">t</tspan><tspan class="cls-6" x="201.45" y="0">anael </tspan><tspan x="0" y="116.37">Oli</tspan><tspan class="cls-7" x="158.64" y="116.37">v</tspan><tspan class="cls-8" x="221.71" y="116.37">ei</tspan><tspan class="cls-9" x="323.58" y="116.37">r</tspan><tspan x="366.64" y="116.37">a</tspan></text></svg>